<svg id="Layer_1" xmlns="http://www.w3.org/2000/svg" viewBox="0 0 334.4 24"><style>.st0{fill:#231f20}</style><path class="st0" d="M1.3 11.7c0-3.2 2.5-5.4 4.6-6.4l.1.1c-.9.9-1.3 1.9-1.3 3.9 0 2.3.6 3.8 1.5 4.9.2-.3.4-.9.4-1.4V9.1l4-2.9.1.1c-.4.5-.5 1-.5 1.8v2.6c0 1.4-2.5 3.1-3.9 3.6C7.4 15.5 9 16 10.6 16c.5 0 .9 0 1.3-.1V6.1c-1.6-.1-3.1-.5-4.3-.9-1.2-.2-2.2-.5-3.2-.5-1.8 0-3.9.6-3.9 3.1 0 .2 0 .4.1.6l-.2.1C.2 7.8 0 7 0 6.4 0 3.5 2.1.9 5.5.9c1.4 0 2.7.3 3.9.6 1.3.4 2.6.7 3.9.7.7 0 1-.3 1-1s-.3-1-.7-1.2c1.4.2 3 1 3 2.9 0 2.4-1.6 3.3-4.3 3.3H12v9.7c2.1-.3 3.4-1.1 4.3-2.7l.1.1c-1.2 3.3-3.2 6.2-7.5 6.2-4.2 0-7.6-2.7-7.6-7.8m11.2-6.3c-3.1 0-5.8-1.5-8-1.5C3 3.9 1.4 4.4.8 6c.6-1.2 2.3-1.5 3.6-1.5 2.3 0 5 1.5 8 1.5 2.5 0 3.9-.7 4.2-2.7h-.1c-.3 1.4-1.5 2.1-4 2.1M3.5 7c-1.1 1.1-2.1 2.6-2.1 4.7 0 5.1 3.5 7.6 7.6 7.6 2.6 0 4.2-1.2 5.2-2.3-1.2 1-2.7 1.7-5.2 1.7-3.4 0-7-2.3-7-7 .1-1.8.7-3.5 1.5-4.7zm3.9 5.6V8.8l-.6.4v3.7c0 .4-.1.6-.2.9h.1c.2-.2.7-.6.7-1.2m11.4 9.8c2.7-.2 5.4-1.3 5.4-4.2V9.1L23 7.6l-1.4 1.5V16l1 1-2.6 2.4h-.1l-2.5-2.2.6-.6V2.5c0-1.1-.9-1.7-1.4-1.8V.6c.2-.1.5-.2 1-.2.9 0 1.5.5 1.8 1.2h.1C20.1.7 21 .4 21.8.4c.2 0 .5 0 .6.1v.1c-.4.2-1 .6-1 2.2v6.1l3.4-3.5h.1c.2.2 1.6 1.5 2 1.8.2.1.4.2.6.2.3 0 .6-.2.7-.2v.1c-.3.3-.6.7-.6 1.3v8.1c0 3.5-3.8 5.5-8.8 6v-.3zM17.1.7c.5.2 1.1.7 1.1 1.8v14.1l-.6.6 2.3 1.9.5-.4-1.9-1.5.4-.4V2.5c0-1.1-.9-1.7-1.8-1.8m6.1 20.5c1-.6 1.8-1.4 1.8-2.9V8.8L23.5 7l-.4.5L24.4 9v9.2c0 1.3-.5 2.3-1.2 3zm6.2-12.6c1.4-.7 3.8-2.1 5.2-3.1h.1c1 1 2.5 2.7 3.7 3.9v.1L32.8 13v2.5c.6.4 2.3 1.3 3.2 1.6l2.3-2.1.2.2-4.5 4.2h-.1c-1.5-.6-3.5-1.5-4.6-2.2.1-.4.2-1.6.2-3.1V8.6zm4.9 10.2c-1.5-.6-3.1-1.3-4.2-1.9.1-.5.2-1.3.2-2.7V8.4l-.6.3v5.5c0 1.4-.1 2.6-.2 3 1.2.6 2.9 1.4 4.4 2.1l.4-.5zm-1.5-6.1l2.8-1.8c-1-1.1-1.9-2.3-2.8-3.2v5zm.7-5.4l-.5.3c.8.9 1.8 2.1 2.8 3.2l.6-.4c-1-1-2-2.2-2.9-3.1m12.3 4.4c0-3.2 2.5-5.4 4.6-6.4l.1.1c-.8.9-1.3 1.9-1.3 3.9 0 2.3.6 3.8 1.5 4.9.2-.3.4-.9.4-1.4V9.1l4-2.9.1.1c-.3.6-.5 1-.5 1.8v2.6c0 1.4-2.5 3.1-3.9 3.6 1.1 1.2 2.7 1.7 4.3 1.7.5 0 .9 0 1.3-.1V6.1c-1.5-.1-3-.6-4.3-.9-1.1-.3-2.2-.6-3.1-.6-1.8 0-3.9.6-3.9 3.1-.1.3-.1.5-.1.7l-.2.1c-.3-.7-.4-1.4-.4-2.2 0-2.9 2.1-5.5 5.5-5.5 1.4 0 2.7.3 3.9.6 1.3.4 2.6.7 3.9.7.7 0 1-.3 1-1s-.3-1-.7-1.2V0c1.4.2 3 1 3 2.9 0 2.4-1.6 3.3-4.3 3.3h-.4v9.7c2.1-.3 3.4-1.1 4.3-2.7l.1.1c-1.2 3.3-3.2 6.2-7.5 6.2-3.9 0-7.4-2.7-7.4-7.8M57 5.4c-3.1 0-5.8-1.5-8-1.5-1.4 0-3.1.6-3.6 2.1.6-1.3 2.2-1.6 3.6-1.6 2.3 0 5 1.5 8 1.5 2.5 0 3.9-.7 4.2-2.7h-.1c-.4 1.5-1.6 2.2-4.1 2.2M48.1 7C47 8.1 46 9.6 46 11.7c0 5.1 3.5 7.6 7.6 7.6 2.6 0 4.2-1.2 5.2-2.3v-.1c-1.2 1-2.8 1.8-5.2 1.8-3.4 0-7-2.3-7-7 0-1.8.7-3.5 1.5-4.7zm3.8 5.6V8.8l-.6.5V13c0 .4-.1.6-.2.9h.1c.3-.3.7-.7.7-1.3M75.1 2.5v13.3c0 .6.6 1.3 1.1 1.4l.7-.7.2.2-2.8 2.8h-.1c-1-.4-2.6-1.4-2.6-2.9V3.9l-.9-1-.6.7H70l3-3.1 2.1 2zm-.4 16.2c-1-.3-2.2-1-2.2-2.5V3.6l-1.2-1.2-.5.5 1 1v12.5c0 1.4 1.4 2.4 2.4 2.7l.5-.4z"/><path class="st0" d="M61.8 8.6c1.4-.7 3.8-2.1 5.2-3.1h.1c1 1 2.5 2.7 3.7 3.9v.1L65.2 13v2.5c.6.4 2.3 1.3 3.2 1.6l2.3-2.1.2.2-4.5 4.2h-.1c-1.5-.6-3.5-1.5-4.6-2.2.1-.4.2-1.6.2-3.1V8.6zm4.9 10.2c-1.5-.6-3.1-1.3-4.2-1.9.1-.5.2-1.3.2-2.7V8.4l-.7.4v5.5c0 1.4-.1 2.6-.2 3 1.2.6 2.9 1.4 4.4 2.1l.5-.6zm-1.5-6.1l2.8-1.8c-1-1.1-1.9-2.3-2.8-3.2v5zm.7-5.4l-.6.3c.8.9 1.8 2.1 2.8 3.2l.6-.4c-1-1-2-2.2-2.8-3.1m11.9 1.3c1.4-.7 3.8-2.1 5.2-3.1h.1c1 1 2.5 2.7 3.7 3.9v.1L81.2 13v2.5c.6.4 2.3 1.3 3.2 1.6l2.3-2.1.2.2-4.5 4.2h-.1c-1.5-.6-3.5-1.5-4.6-2.2.1-.4.2-1.6.2-3.1V8.6zm4.9 10.2c-1.5-.6-3.1-1.3-4.2-1.9.1-.5.2-1.3.2-2.7V8.4l-.7.3v5.5c0 1.4-.1 2.6-.2 3 1.2.6 2.9 1.4 4.4 2.1l.5-.5zm-1.5-6.1l2.8-1.8c-1-1.1-1.9-2.3-2.8-3.2v5zm.8-5.4l-.6.3c.8.9 1.8 2.1 2.8 3.2l.6-.4c-1-1-2-2.2-2.8-3.1m5.9 9.8V8.6l4.5-3.1h.1c.5.2 3.8 1.5 4.2 1.7.2.1.3.1.5.1.3 0 .6-.1.8-.2v.1c-.2.3-.6.8-.6 1.3v7.7c0 1.8.4 2.4 1 3.1v.1c-1 1-3.5 3.2-4.4 4.5-1-.6-2.7-1-4-1-1 0-2.3.3-3 .9l-.1-.1c.8-1.8 2.3-3.6 4.4-3.6 1.4 0 3.2.6 4.7 1.4-1-1.2-2-2.9-2-5l-3 2.8-3.1-2.2zM90 22c-.9 0-1.8.5-2.4 1.1.6-.3 1.3-.6 2.4-.6 1.3 0 3.1.4 4 .9l.5-.6c-1.2-.4-2.7-.8-4.5-.8m1-2.9l.6-.5-2.8-1.9V8.2l-.6.5V17l2.8 2.1zm3.9-10.8l-3.5-1.4v.6l2.9 1.2v7.8c0 1.7.8 3.4 1.9 4.7l.5-.5c-1-1.3-1.8-2.7-1.8-4.3V8.3zm-.9 7.9V8.8l-2.7-1.1v8.4l1.6 1.1 1.1-1zm9.6-7.2v6.7c0 .6.6 1.2 1.2 1.4l.7-.7.2.2-2.8 2.8h-.1c-1-.4-2.6-1.4-2.6-2.9V8.8l-1-1-.6.6-.1-.2 3-3.1h.1l2.1 2v1.3l2.7-3.3h.1c.6.5 1.4 1.3 2 1.8V7l-2.1 2.6h-.1c-.6-.5-1.4-1.3-1.8-1.8l-.9 1.2zm-.4 9.7c-1-.3-2.3-1-2.3-2.5V8.5l-1.2-1.2-.5.5 1 1v7.6c0 1.4 1.4 2.4 2.4 2.7l.6-.4zM104.5 8c.5.4 1.3 1.2 1.8 1.6l.4-.6c-.5-.4-1.4-1.3-1.8-1.6l-.4.6zm6.6 11.4l-2.9-2v-4.1c.9-.6 2.6-1.8 3.2-2.3-1.2-.6-2.3-1.5-3-2.5v-.1c1.8-1 3-1.9 4.1-3h.1s3.9 1.8 4.1 1.9c.2.1.3.2.6.2s.6-.2.7-.2v.1c-.3.3-.6.7-.6 1.3v7c0 .6.6 1.3 1.2 1.4l.7-.7.2.2-2.8 2.8c-1-.4-2.5-1.4-2.6-2.8l-3 2.8zm.4-.6L109 17v-4l-.6.4v3.9l2.8 2 .3-.5zm2.5-7V9.6l-3.8-2.1c-.2.2-1.3.8-1.5 1 .8 1.2 3.1 2.8 5.3 3.3m3.1 6.9c-1-.3-2.3-1.1-2.3-2.6v-7L110.9 7l-.6.4 3.9 2.1v6.9c0 1.4 1.4 2.4 2.4 2.7l.5-.4zm-3.1-2.4V12c-.9-.2-1.7-.6-2.5-1v5.3l1.4 1 1.1-1zm10.2-7.5l3.4-3.4h.1c.2.2 1.8 1.6 2.1 1.8.2.1.3.1.5.1.3 0 .6-.1.7-.2v.1c-.3.2-.6.8-.6 1.3V17c-1.4.3-2.5 1.1-3.7 2.6h-.1l-2.3-.5v1.6l1.1 1-2.7 2.3h-.1l-2.5-2.2.6-.6v-2.8c-.2-.1-.6-.2-.9-.3v-.2c.3-.2.9-1 .9-1.7V8.8l-.9-1-.7.6h-.1l3-3.1h.1l2.1 2v1.5zM121 21.1l-.6.6 2.3 1.9.5-.3-1.8-1.6.4-.4V8.5l-1.2-1.2-.5.5 1 1v12.3zm6-4.4V9.1l-1.4-1.4-1.3 1.4v7.1l2.7.5zm-.4 2.7c.2-.2.4-.4.5-.6l-2.8-.6v.6l2.3.6zm-.9-11.8l1.4 1.4v7.6l.6-.3V8.8l-1.5-1.6-.5.4zm7.6 14.8c2.7-.2 5.4-1.3 5.4-4.2V9.1l-1.2-1.4-1.4 1.5v6.9l1 1-2.6 2.3h-.1l-2.5-2.2.6-.6V2.5c0-1.1-.9-1.7-1.4-1.8V.6c.2-.2.6-.2 1-.2.9 0 1.5.5 1.8 1.2h.1c.6-.9 1.5-1.2 2.3-1.2.2 0 .5 0 .6.1v.1c-.4.2-1 .6-1 2.2v6.1l3.4-3.5h.1c.2.2 1.6 1.5 2 1.8.2.1.4.2.6.2.3 0 .6-.2.7-.2v.1c-.3.3-.6.7-.6 1.3v8.1c0 3.5-3.8 5.5-8.8 6v-.3zM131.6.7c.5.2 1.1.7 1.1 1.8v14.1l-.6.6 2.3 1.9.5-.4-1.9-1.5.4-.4V2.5c0-1.1-1-1.7-1.8-1.8m6.1 20.4c1-.6 1.8-1.4 1.8-2.9V8.8L138 7.1l-.4.5 1.3 1.5v9.2c-.1 1.2-.5 2.2-1.2 2.8zm13.9-11.5l-2.9 2.9 2.9 2.9 2.9-2.9-2.9-2.9zm-2.5 2.9l.5-.5 2.6 2.6-.5.5-2.6-2.6z"/><g><path class="st0" d="M165.9 6.1c-.9.8-1.7 2.4-1.7 5.3 0 2.8.7 4.3 1.7 5.1.7.6 1.3.7 2.3.7 1.6 0 3.1-.9 3.9-2.9l.5.2c-.8 2.1-2.4 3.6-5.3 3.6-3.4 0-6.2-2.3-6.2-6.6 0-4 3.1-6.6 6.6-6.6 1.8 0 2.9.6 3.5 1.2h.1l.6-.9h.3v4.3h-.4c-.3-1.3-.8-2.2-1.3-2.9-.6-.8-1.3-1.2-2.6-1.2-.7 0-1.4.2-2 .7zm13.9 11.8h-6.2v-.4c.3 0 .5-.1.7-.1.3-.1.6-.3.7-.6.2-.4.2-1 .2-1.8V8.2c0-.9 0-1.5-.2-1.9-.2-.3-.4-.5-.7-.6-.2-.1-.4-.1-.7-.1v-.4h6.6c3 0 4.6 1 4.6 3.2 0 1.3-.7 2.1-1.7 2.5-.4.2-1 .5-1.8.6v.1c.7.1 1.4.2 1.9.5.7.4 1.2 1.1 1.5 2.4.3 1.7.6 2.3 1 2.7.2.2.6.4 1.1.4v.4h-4.1c-.4-.5-.7-1.4-.9-2.7-.2-1.4-.2-2.3-.8-2.9-.4-.5-1-.6-1.8-.6h-1.1V15c0 .9 0 1.4.2 1.8.2.3.4.5.7.6.2.1.4.1.7.1v.4zm-1-12.2c-.2 0-.4.1-.5.2-.1.1-.2.3-.2.6v4.7h1.2c1.2 0 1.7-.2 2.1-.8.4-.5.5-1.3.5-2.2 0-1.9-.7-2.6-2.1-2.6h-1zm19.1 12.2h-10.6v-.4c.3 0 .5-.1.7-.1.3-.2.6-.3.7-.6.2-.4.2-1 .2-1.9V8.2c0-.9 0-1.4-.2-1.9-.2-.3-.4-.5-.7-.6-.2-.1-.4-.1-.7-.1v-.4h10.2l.5 3.7h-.4c-.5-.9-1.1-1.8-1.8-2.4-.4-.4-1-.8-2-.8h-.9c-.3 0-.6 0-.7.2-.3.3-.3.8-.3 1.2V11h1c.7 0 1.2-.1 1.6-.5.5-.5.7-1.1.8-1.7h.4v4.9h-.4c-.2-.6-.3-1.2-.8-1.7-.4-.4-.8-.5-1.5-.5h-1v3.8c0 .7 0 1.3.4 1.7.2.2.6.4 1.2.4h.7c1.1 0 1.5-.3 2.1-1 .8-.8 1.4-1.9 1.9-2.8h.3l-.7 4.3zm4.8 0h-3.9v-.4c.3 0 .6-.1.8-.2.2-.1.4-.3.6-.7.2-.4.5-.9.7-1.7l3.8-9.9h.9l3.4 9.4c.4 1.1.6 1.6.9 2.1.3.5.6.7.9.9.3.1.4.2.7.2v.4h-6.4v-.4c.3 0 .6-.1.7-.2.2-.1.6-.4.6-.9s-.2-.9-.4-1.5l-.4-1H202l-.4 1.2c-.2.6-.3.9-.3 1.3 0 .5.2.8.6 1 .2.1.5.2.8.2v.2zm-.5-4.5h3.3L204 9h-.1l-1.7 4.4zm16 3.4c.2.3.4.5.7.6.2.1.4.1.7.1v.4h-6.1v-.4c.3 0 .5-.1.7-.1.3-.2.5-.3.7-.6.2-.4.2-1 .2-1.8V5.7h-.6c-.8 0-1.3.2-2 .9-.9.9-1.4 1.8-1.8 2.6h-.4l.5-4h11.5l.4 4h-.4c-.4-.8-.9-1.7-1.8-2.6-.7-.6-1.2-.9-2-.9h-.6v9.2c0 .9 0 1.5.3 1.9zm9.7-1.9c0 .9 0 1.5.2 1.9.2.3.4.5.7.6.2.1.4.1.7.1v.4h-6.1v-.4c.3 0 .5-.1.7-.1.3-.1.5-.3.7-.6.2-.4.2-.9.2-1.8V8.2c0-.9-.1-1.5-.2-1.9-.2-.3-.3-.5-.7-.6-.2-.1-.4-.1-.7-.1v-.4h6.1v.4c-.3 0-.5.1-.7.1-.3.1-.5.2-.7.6-.2.4-.2 1-.2 1.9v6.7zm9.6-.8h.1l2.2-6.2c.2-.5.3-.9.3-1.3 0-.5-.2-.8-.6-.9-.2-.1-.5-.1-.8-.2v-.3h3.9v.4c-.3 0-.6.1-.8.2-.2.2-.4.3-.7.7-.2.3-.5 1-.7 1.7l-3.6 9.9h-1l-3.3-9.4c-.4-1.1-.6-1.6-.9-2-.3-.4-.5-.6-.9-.8-.2-.1-.5-.2-.7-.2v-.5h6.6v.4c-.4 0-.6.1-.8.2-.3.1-.6.3-.6.9 0 .5.2 1 .4 1.5l1.9 5.9zm16 3.8h-10.6v-.4c.3 0 .5-.1.7-.1.3-.2.6-.3.7-.6.2-.4.2-1 .2-1.9V8.2c0-.9 0-1.4-.2-1.9-.2-.3-.4-.5-.7-.6-.2-.1-.4-.1-.7-.1v-.4h10.2l.5 3.7h-.4c-.5-.9-1.2-1.9-1.9-2.5-.4-.4-1-.8-2-.8h-.9c-.3 0-.6 0-.7.2-.3.3-.3.8-.3 1.2v4h1c.7 0 1.2-.1 1.6-.5.5-.5.7-1.1.8-1.7h.4v4.9h-.4c-.2-.6-.3-1.2-.8-1.7-.4-.4-.8-.5-1.5-.5h-1v3.8c0 .7 0 1.3.4 1.7.2.2.6.4 1.2.4h.7c1.1 0 1.5-.3 2.1-1 .8-.8 1.4-1.9 1.9-2.8h.3l-.6 4.3zm11.2 0h-6.2v-.4c.3 0 .5-.1.7-.1.3-.1.6-.3.7-.6.2-.4.2-1 .2-1.8V8.2c0-.9 0-1.5-.2-1.9-.2-.3-.4-.5-.7-.6-.2-.1-.4-.1-.7-.1v-.4h6.6c3 0 4.6 1 4.6 3.2 0 1.3-.7 2.1-1.7 2.5-.4.2-1 .5-1.8.6v.1c.7.1 1.4.2 1.9.5.7.4 1.2 1.1 1.5 2.4.3 1.7.6 2.3 1 2.7.2.2.6.4 1.1.4v.4h-4.1c-.4-.5-.7-1.4-.9-2.7-.2-1.4-.2-2.3-.8-2.9-.4-.5-1-.6-1.8-.6H263V15c0 .9 0 1.4.2 1.8.2.3.4.5.7.6.2.1.4.1.7.1v.4zm-.9-12.2c-.2 0-.4.1-.5.2-.1.1-.2.3-.2.6v4.7h1.2c1.2 0 1.7-.2 2.1-.8.4-.5.5-1.3.5-2.2 0-1.9-.7-2.6-2.1-2.6h-1zm19.1 12.2h-10.6v-.4c.3 0 .5-.1.7-.1.3-.2.6-.3.7-.6.2-.4.2-1 .2-1.9V8.2c0-.9 0-1.4-.2-1.9-.2-.3-.4-.5-.7-.6-.2-.1-.4-.1-.7-.1v-.4h10.2l.5 3.7h-.4c-.5-.9-1.1-1.8-1.8-2.4-.4-.4-1-.8-2-.8h-.9c-.3 0-.6 0-.7.2-.3.3-.3.8-.3 1.2V11h1c.7 0 1.2-.1 1.6-.5.5-.5.7-1.1.8-1.7h.4v4.9h-.4c-.2-.6-.3-1.2-.8-1.7-.4-.4-.8-.5-1.5-.5h-1v3.8c0 .7 0 1.3.4 1.7.2.2.6.4 1.2.4h.7c1.1 0 1.5-.3 2.1-1 .8-.8 1.4-1.9 1.9-2.8h.3l-.7 4.3zm8.1-3.8h.1l2.2-6.2c.2-.5.3-.9.3-1.3 0-.5-.2-.8-.6-.9-.2-.1-.5-.1-.8-.2v-.3h3.9v.4c-.3 0-.6.1-.8.2-.2.2-.4.3-.7.7-.2.3-.5 1-.7 1.7l-3.6 9.9h-1L286 8.6c-.4-1.1-.6-1.6-.9-2-.3-.4-.5-.6-.9-.8-.2-.1-.5-.2-.7-.2v-.4h6.6v.4c-.4 0-.6.1-.8.2-.3.1-.6.3-.6.9 0 .5.2 1 .4 1.5l1.9 5.9zm9.9.8c0 .9 0 1.5.2 1.9.2.3.4.5.7.6.2.1.4.1.7.1v.4h-6.1v-.4c.3 0 .5-.1.7-.1.3-.1.5-.3.7-.6.2-.4.2-.9.2-1.8V8.2c0-.9-.1-1.5-.2-1.9-.2-.3-.3-.5-.7-.6-.2-.1-.4-.1-.7-.1v-.4h6.1v.4c-.3 0-.5.1-.7.1-.3.1-.5.2-.7.6-.2.4-.2 1-.2 1.9v6.7zm13.3 3h-10.6v-.4c.3 0 .5-.1.7-.1.3-.2.6-.3.7-.6.2-.4.2-1 .2-1.9V8.2c0-.9 0-1.4-.2-1.9-.2-.3-.4-.5-.7-.6-.2-.1-.4-.1-.7-.1v-.4h10.2l.5 3.7h-.4c-.5-.9-1.1-1.8-1.8-2.4-.4-.4-1-.8-2-.8h-.9c-.3 0-.6 0-.7.2-.3.3-.3.8-.3 1.2V11h1c.7 0 1.2-.1 1.6-.5.5-.5.7-1.1.8-1.7h.4v4.9h-.4c-.2-.6-.3-1.2-.8-1.7-.4-.4-.8-.5-1.5-.5h-1v3.8c0 .7 0 1.3.4 1.7.2.2.6.4 1.2.4h.7c1.1 0 1.5-.3 2.1-1 .8-.8 1.4-1.9 1.9-2.8h.3l-.7 4.3zm10.6-9.1l-3.1 9.2h-1.3l-3.3-10c-.2-.6-.4-1-.5-1.3-.2-.4-.4-.6-.6-.8-.3-.2-.6-.3-.9-.4v-.3h6.4v.4c-.4 0-.6.1-.8.2-.5 0-.7.2-.7.7 0 .5.2 1 .4 1.7l1.8 5.9h.1l2.1-6.4c-.1-.2-.3-.6-.3-.8-.3-.6-.5-.9-.8-1.1-.2-.2-.4-.2-.8-.3v-.3h6.3v.4c-.4 0-.6.1-.8.2-.3.1-.6.3-.6.8s.2 1.1.4 1.7l1.7 5.9h.1l1.9-6.1c.2-.6.3-1 .3-1.4 0-.5-.2-.7-.5-.9-.2-.1-.5-.2-.8-.2v-.4h3.8v.4c-.3.1-.6.1-.8.2-.2.1-.4.3-.7.7-.2.3-.4.8-.7 1.6L329 18h-1.3l-2.9-9.2z"/></g></svg>