<svg xmlns="http://www.w3.org/2000/svg" viewBox="0 0 422.18 24"><defs><style>.cls-1{fill:#231f20;}.cls-2{fill:#1d1d1b;}</style></defs><title>Asset 1</title><g id="Layer_2" data-name="Layer 2"><g id="Layer_1-2" data-name="Layer 1"><path class="cls-1" d="M239.48,9.6l-2.9,2.9,2.9,2.9,2.9-2.9ZM237,12.5l.5-.5,2.6,2.6-.5.5Z"/><path class="cls-1" d="M253.78,6.1c-.9.8-1.7,2.4-1.7,5.3s.7,4.3,1.7,5.1a3,3,0,0,0,2.3.7,4.15,4.15,0,0,0,3.9-2.9l.5.2a5.22,5.22,0,0,1-5.3,3.6c-3.4,0-6.2-2.3-6.2-6.6a6.47,6.47,0,0,1,6.6-6.6,4.79,4.79,0,0,1,3.5,1.2h.1l.6-.9h.3V9.5h-.4a7.85,7.85,0,0,0-1.3-2.9,2.86,2.86,0,0,0-2.6-1.2,3.06,3.06,0,0,0-2,.7Zm13.9,11.8h-6.2v-.4c.3,0,.5-.1.7-.1a1.06,1.06,0,0,0,.7-.6,4.44,4.44,0,0,0,.2-1.8V8.2a4.72,4.72,0,0,0-.2-1.9,1.34,1.34,0,0,0-.7-.6,1.48,1.48,0,0,0-.7-.1V5.2h6.6c3,0,4.6,1,4.6,3.2a2.53,2.53,0,0,1-1.7,2.5,5.36,5.36,0,0,1-1.8.6v.1a5.3,5.3,0,0,1,1.9.5,3.36,3.36,0,0,1,1.5,2.4c.3,1.7.6,2.3,1,2.7a1.6,1.6,0,0,0,1.1.4V18h-4.1a6,6,0,0,1-.9-2.7c-.2-1.4-.2-2.3-.8-2.9a2.1,2.1,0,0,0-1.8-.6H266V15a4.19,4.19,0,0,0,.2,1.8,1.34,1.34,0,0,0,.7.6,1.48,1.48,0,0,0,.7.1v.4Zm-1-12.2a.76.76,0,0,0-.5.2.85.85,0,0,0-.2.6v4.7h1.2c1.2,0,1.7-.2,2.1-.8a3.6,3.6,0,0,0,.5-2.2c0-1.9-.7-2.6-2.1-2.6h-1Zm19.1,12.2h-10.6v-.4c.3,0,.5-.1.7-.1.3-.2.6-.3.7-.6a4.72,4.72,0,0,0,.2-1.9V8.2a5,5,0,0,0-.2-1.9,1.34,1.34,0,0,0-.7-.6,1.48,1.48,0,0,0-.7-.1V5.2h10.2l.5,3.7h-.4a8.88,8.88,0,0,0-1.8-2.4,2.67,2.67,0,0,0-2-.8h-.9c-.3,0-.6,0-.7.2a1.68,1.68,0,0,0-.3,1.2V11h1a2.07,2.07,0,0,0,1.6-.5,3,3,0,0,0,.8-1.7h.4v4.9h-.4a3.81,3.81,0,0,0-.8-1.7,1.84,1.84,0,0,0-1.5-.5h-1v3.8a2.29,2.29,0,0,0,.4,1.7,1.69,1.69,0,0,0,1.2.4h.7a2.28,2.28,0,0,0,2.1-1,12.59,12.59,0,0,0,1.9-2.8h.3Zm4.8,0h-3.9v-.4a1.88,1.88,0,0,0,.8-.2,1.44,1.44,0,0,0,.6-.7,7.26,7.26,0,0,0,.7-1.7l3.8-9.9h.9l3.4,9.4a11.62,11.62,0,0,0,.9,2.1,2.55,2.55,0,0,0,.9.9,1.85,1.85,0,0,0,.7.2V18H293v-.4a1.17,1.17,0,0,0,.7-.2,1.06,1.06,0,0,0,.6-.9,4.8,4.8,0,0,0-.4-1.5l-.4-1h-3.6l-.4,1.2a3.92,3.92,0,0,0-.3,1.3,1,1,0,0,0,.6,1,1.88,1.88,0,0,0,.8.2v.2Zm-.5-4.5h3.3L291.88,9h-.1Zm16,3.4a1.34,1.34,0,0,0,.7.6,1.48,1.48,0,0,0,.7.1v.4h-6.1v-.4c.3,0,.5-.1.7-.1a2,2,0,0,0,.7-.6A4.44,4.44,0,0,0,303,15V5.7h-.6a2.48,2.48,0,0,0-2,.9,9.41,9.41,0,0,0-1.8,2.6h-.4l.5-4h11.5l.4,4h-.4a9.41,9.41,0,0,0-1.8-2.6,2.83,2.83,0,0,0-2-.9h-.6v9.2a3.27,3.27,0,0,0,.3,1.9Zm9.7-1.9a4.72,4.72,0,0,0,.2,1.9,1.34,1.34,0,0,0,.7.6,1.48,1.48,0,0,0,.7.1v.4h-6.1v-.4c.3,0,.5-.1.7-.1a1.34,1.34,0,0,0,.7-.6,4.19,4.19,0,0,0,.2-1.8V8.2a7.75,7.75,0,0,0-.2-1.9c-.2-.3-.3-.5-.7-.6a1.48,1.48,0,0,0-.7-.1V5.2h6.1v.4c-.3,0-.5.1-.7.1a1,1,0,0,0-.7.6,4.72,4.72,0,0,0-.2,1.9Zm9.6-.8h.1l2.2-6.2a3.45,3.45,0,0,0,.3-1.3.8.8,0,0,0-.6-.9c-.2-.1-.5-.1-.8-.2V5.2h3.9v.4a1.88,1.88,0,0,0-.8.2,4.51,4.51,0,0,0-.7.7,7.26,7.26,0,0,0-.7,1.7l-3.6,9.9h-1l-3.3-9.4a7.78,7.78,0,0,0-.9-2,2.28,2.28,0,0,0-.9-.8,1.85,1.85,0,0,0-.7-.2V5.2h6.6v.4a1.55,1.55,0,0,0-.8.2.82.82,0,0,0-.6.9,4.19,4.19,0,0,0,.4,1.5l1.9,5.9Zm16,3.8h-10.6v-.4c.3,0,.5-.1.7-.1.3-.2.6-.3.7-.6a4.72,4.72,0,0,0,.2-1.9V8.2a5,5,0,0,0-.2-1.9,1.34,1.34,0,0,0-.7-.6,1.48,1.48,0,0,0-.7-.1V5.2H341l.5,3.7h-.4a9.7,9.7,0,0,0-1.9-2.5,2.67,2.67,0,0,0-2-.8h-.9c-.3,0-.6,0-.7.2a1.68,1.68,0,0,0-.3,1.2v4h1a2.07,2.07,0,0,0,1.6-.5,3,3,0,0,0,.8-1.7h.4v4.9h-.4a3.81,3.81,0,0,0-.8-1.7,1.84,1.84,0,0,0-1.5-.5h-1v3.8a2.29,2.29,0,0,0,.4,1.7,1.69,1.69,0,0,0,1.2.4h.7a2.28,2.28,0,0,0,2.1-1,12.59,12.59,0,0,0,1.9-2.8h.3Zm11.2,0h-6.2v-.4c.3,0,.5-.1.7-.1a1.06,1.06,0,0,0,.7-.6A4.44,4.44,0,0,0,348,15V8.2a4.72,4.72,0,0,0-.2-1.9,1.34,1.34,0,0,0-.7-.6,1.48,1.48,0,0,0-.7-.1V5.2H353c3,0,4.6,1,4.6,3.2a2.53,2.53,0,0,1-1.7,2.5,5.36,5.36,0,0,1-1.8.6v.1a5.3,5.3,0,0,1,1.9.5,3.36,3.36,0,0,1,1.5,2.4c.3,1.7.6,2.3,1,2.7a1.6,1.6,0,0,0,1.1.4V18h-4.1a6,6,0,0,1-.9-2.7c-.2-1.4-.2-2.3-.8-2.9a2.1,2.1,0,0,0-1.8-.6h-1.1V15a4.19,4.19,0,0,0,.2,1.8,1.34,1.34,0,0,0,.7.6,1.48,1.48,0,0,0,.7.1v.4Zm-.9-12.2a.76.76,0,0,0-.5.2.85.85,0,0,0-.2.6v4.7h1.2c1.2,0,1.7-.2,2.1-.8a3.6,3.6,0,0,0,.5-2.2c0-1.9-.7-2.6-2.1-2.6h-1Zm19.1,12.2h-10.6v-.4c.3,0,.5-.1.7-.1.3-.2.6-.3.7-.6a4.72,4.72,0,0,0,.2-1.9V8.2a5,5,0,0,0-.2-1.9,1.34,1.34,0,0,0-.7-.6,1.48,1.48,0,0,0-.7-.1V5.2h10.2l.5,3.7h-.4a8.88,8.88,0,0,0-1.8-2.4,2.67,2.67,0,0,0-2-.8h-.9c-.3,0-.6,0-.7.2a1.68,1.68,0,0,0-.3,1.2V11h1a2.07,2.07,0,0,0,1.6-.5,3,3,0,0,0,.8-1.7h.4v4.9h-.4a3.81,3.81,0,0,0-.8-1.7,1.84,1.84,0,0,0-1.5-.5h-1v3.8a2.29,2.29,0,0,0,.4,1.7,1.69,1.69,0,0,0,1.2.4h.7a2.28,2.28,0,0,0,2.1-1,12.59,12.59,0,0,0,1.9-2.8h.3l-.7,4.3Zm8.1-3.8h.1l2.2-6.2a3.45,3.45,0,0,0,.3-1.3.8.8,0,0,0-.6-.9c-.2-.1-.5-.1-.8-.2V5.2H384v.4a1.88,1.88,0,0,0-.8.2,4.51,4.51,0,0,0-.7.7,7.26,7.26,0,0,0-.7,1.7l-3.6,9.9h-1l-3.3-9.5a7.78,7.78,0,0,0-.9-2,2.28,2.28,0,0,0-.9-.8,1.85,1.85,0,0,0-.7-.2V5.2H378v.4a1.55,1.55,0,0,0-.8.2.82.82,0,0,0-.6.9,4.19,4.19,0,0,0,.4,1.5l1.9,5.9Zm9.9.8a4.72,4.72,0,0,0,.2,1.9,1.34,1.34,0,0,0,.7.6,1.48,1.48,0,0,0,.7.1v.4h-6.1v-.4c.3,0,.5-.1.7-.1a1.34,1.34,0,0,0,.7-.6,4.19,4.19,0,0,0,.2-1.8V8.2a7.75,7.75,0,0,0-.2-1.9c-.2-.3-.3-.5-.7-.6a1.48,1.48,0,0,0-.7-.1V5.2h6.1v.4c-.3,0-.5.1-.7.1a1,1,0,0,0-.7.6,4.72,4.72,0,0,0-.2,1.9Zm13.3,3h-10.6v-.4c.3,0,.5-.1.7-.1.3-.2.6-.3.7-.6a4.72,4.72,0,0,0,.2-1.9V8.2a5,5,0,0,0-.2-1.9,1.34,1.34,0,0,0-.7-.6,1.48,1.48,0,0,0-.7-.1V5.2h10.2l.5,3.7h-.4A8.88,8.88,0,0,0,400,6.5a2.67,2.67,0,0,0-2-.8h-.9c-.3,0-.6,0-.7.2a1.68,1.68,0,0,0-.3,1.2V11h1a2.07,2.07,0,0,0,1.6-.5,3,3,0,0,0,.8-1.7h.4v4.9h-.4a3.81,3.81,0,0,0-.8-1.7,1.84,1.84,0,0,0-1.5-.5h-1v3.8a2.29,2.29,0,0,0,.4,1.7,1.69,1.69,0,0,0,1.2.4h.7a2.28,2.28,0,0,0,2.1-1,12.59,12.59,0,0,0,1.9-2.8h.3l-.7,4.3Zm10.6-9.1-3.1,9.2h-1.3L405,8c-.2-.6-.4-1-.5-1.3a2.76,2.76,0,0,0-.6-.8,3.55,3.55,0,0,0-.9-.4V5.2h6.4v.4a1.55,1.55,0,0,0-.8.2c-.5,0-.7.2-.7.7a6.78,6.78,0,0,0,.4,1.7l1.8,5.9h.1l2.1-6.4a2.61,2.61,0,0,1-.3-.8,2.58,2.58,0,0,0-.8-1.1c-.2-.2-.4-.2-.8-.3V5.2h6.3v.4a1.55,1.55,0,0,0-.8.2.78.78,0,0,0-.6.8,5.93,5.93,0,0,0,.4,1.7l1.7,5.9h.1l1.9-6.1a4.41,4.41,0,0,0,.3-1.4.94.94,0,0,0-.5-.9,1.88,1.88,0,0,0-.8-.2V5.2h3.8v.4c-.3.1-.6.1-.8.2a2.23,2.23,0,0,0-.7.7,8.94,8.94,0,0,0-.7,1.6l-3.1,9.9h-1.3Z"/><path class="cls-2" d="M167.25.26h-5.84v20.6h2.66v-8h3.18c4.33,0,7.14-2.47,7.14-6.29S171.58.26,167.25.26Zm-.06,10.14h-3.12V2.69h3.12c2.95,0,4.53,1.45,4.53,3.86S170.17,10.4,167.19,10.4Z"/><path class="cls-2" d="M153.45,9.52l-1.9-.82c-2.18-1-3.06-2-3.06-3.48,0-1.7,1.53-2.7,3.29-2.7a4.77,4.77,0,0,1,4,2l1.87-1.87A7.22,7.22,0,0,0,151.86,0c-3.06,0-6,2-6,5.16,0,2.58,1.36,4.5,4.5,5.84l1.9.82c2.21,1,3.37,1.95,3.37,3.82s-1.5,2.89-3.88,2.89a6.06,6.06,0,0,1-4.68-2.41l-2,1.73a8.24,8.24,0,0,0,6.72,3.23c4,0,6.51-2.35,6.51-5.72C158.29,12.47,156.23,10.74,153.45,9.52Z"/><path class="cls-2" d="M203.2,11.68A5.54,5.54,0,0,0,208.07,6c0-3.52-2.57-5.81-6.63-5.81h-6.12v20.6H198v-9h2.27l6.88,9h3.2ZM198,9.49V2.67h3.31c2.7,0,4.06,1.27,4.06,3.42s-1.36,3.4-4.06,3.4Z"/><polygon class="cls-2" points="220.51 10.99 229.86 0.8 226.63 0.74 217.14 11.08 217.03 11.08 227.14 21.05 230.51 20.97 220.51 10.99"/><rect class="cls-2" x="212.38" y="0.26" width="2.52" height="20.6"/><path class="cls-2" d="M182.4,0l-10,20.83h2.91l1.53-3.29H188l1.56,3.29h2.83ZM178,15.13l0-.14,4.37-9.32,3.06,6.4,1.44,3.06Z"/><path class="cls-2" d="M18,22.05c2.52-.2,5-1.05,5-3.72V9.92L21.87,8.76,20.63,10v6.32l1,.94-2.4,2.12H19l-2.35-2,.62-.62V3.88A1.69,1.69,0,0,0,16,2.3V2.07A2.69,2.69,0,0,1,17,1.87a1.91,1.91,0,0,1,1.75,1h.09a2.47,2.47,0,0,1,2-1,3.37,3.37,0,0,1,.77.09v.25c-.43.12-1,.63-1,1.93V9.47l3.08-3h.23c.23.23,1.59,1.45,1.84,1.62a.81.81,0,0,0,.43.11,1.41,1.41,0,0,0,.65-.2v.34a1.64,1.64,0,0,0-.57,1.16V16.8c0,3.23-3.54,5.19-8.3,5.53ZM16.8,2.24l0,.09a1.44,1.44,0,0,1,.91,1.41V16.86l-.51.51,2,1.67.6-.48-1.59-1.3.28-.26V3.88A1.74,1.74,0,0,0,16.8,2.24m5.47,18.9a3.2,3.2,0,0,0,1.84-2.75V9.47L22.69,8l-.56.57,1.24,1.3v8.56a3.22,3.22,0,0,1-1.16,2.66Z"/><path class="cls-2" d="M28.28,9.41a39.61,39.61,0,0,0,4.84-2.92h.26c.9.94,2.23,2.44,3.37,3.46v.25l-5.16,3.37v2.1a23.81,23.81,0,0,0,2.92,1.42l2.1-2,.25.25-4.19,4h-.29C31,18.79,29.15,18,28,17.34a11.66,11.66,0,0,0,.26-2.83V9.41Zm4.78,9.15A40.82,40.82,0,0,1,29.3,16.8a13.4,13.4,0,0,0,.08-2.23V9.27l-.74.39v4.93a12.17,12.17,0,0,1-.14,2.61c1.08.6,2.64,1.25,4.08,1.9Zm-1.5-5.38,2.33-1.59c-.8-.91-1.65-1.9-2.33-2.66ZM32.3,8l-.62.43c.73.85,1.64,1.92,2.57,2.94l.66-.42C34,10,33.06,8.84,32.3,8"/><path class="cls-2" d="M129.9,22c2.53-.2,5-1.05,5-3.71V9.89l-1.13-1.16L132.54,10v6.31l1.05.94-2.41,2.12H131l-2.35-2,.62-.62V3.86a1.67,1.67,0,0,0-1.33-1.59V2a2.69,2.69,0,0,1,1-.2,2,2,0,0,1,1.76,1h.08a2.48,2.48,0,0,1,2-1,3.36,3.36,0,0,1,.77.08v.26c-.43.11-1,.62-1,1.92V9.44l3.09-3h.22c.23.23,1.59,1.45,1.85,1.62a.76.76,0,0,0,.42.11,1.27,1.27,0,0,0,.65-.2v.46a1.58,1.58,0,0,0-.56,1.16V16.8c0,3.23-3.55,5.19-8.31,5.53ZM128.71,2.21l0,.09a1.44,1.44,0,0,1,.9,1.41V16.83l-.51.51,2,1.67.59-.48-1.59-1.3.29-.26V3.86a1.75,1.75,0,0,0-1.65-1.65m5.47,18.9A3.17,3.17,0,0,0,136,18.36V9.44l-1.41-1.5L134,8.5l1.25,1.31v8.55A3.28,3.28,0,0,1,134.13,21Z"/><path class="cls-2" d="M59,9.38a39.73,39.73,0,0,0,4.85-2.92h.25C65,7.4,66.3,8.9,67.43,9.92v.25l-5.15,3.38v2.09a23,23,0,0,0,2.91,1.42l2.07-2,.26.25-4.2,4.05h-.25a45.13,45.13,0,0,1-4.39-2,11.65,11.65,0,0,0,.25-2.83V9.38Zm4.79,9.15c-1.42-.62-2.66-1.13-3.77-1.75a12.12,12.12,0,0,0,.09-2.24V9.24l-.74.4v4.9a12.72,12.72,0,0,1-.14,2.6c1.07.6,2.63,1.25,4.08,1.9Zm-1.5-5.38,2.32-1.59c-.79-.9-1.64-1.9-2.32-2.66ZM62.93,8l-.63.43c.74.85,1.65,1.92,2.58,2.94l.65-.42c-.93-1-1.84-2.13-2.6-3"/><path class="cls-2" d="M72.08,3.54V16a1.27,1.27,0,0,0,1,1.14l.74-.74.22.25-2.66,2.72h-.14a2.93,2.93,0,0,1-2.44-2.69V5.07l-.74-.73-.76.76L67,4.85l3-3h.2Zm-.31,14.94a2.24,2.24,0,0,1-1.87-2.19V4.54L68.85,3.46,68.28,4l.85.87V16.61A2.61,2.61,0,0,0,71.2,19Z"/><path class="cls-2" d="M75.19,9.38A39,39,0,0,0,80,6.46h.25c.91.94,2.24,2.44,3.38,3.46v.25l-5.16,3.38v2.09a23.13,23.13,0,0,0,2.92,1.42l2.09-2,.26.25-4.19,4.05h-.26a45.13,45.13,0,0,1-4.39-2,11.65,11.65,0,0,0,.25-2.83ZM80,18.53c-1.42-.62-2.66-1.13-3.77-1.75a12.12,12.12,0,0,0,.09-2.24V9.24l-.77.4v4.9a12.72,12.72,0,0,1-.14,2.6c1.08.6,2.64,1.25,4.08,1.9Zm-1.5-5.38,2.32-1.59c-.79-.93-1.64-1.9-2.32-2.66ZM79.22,8l-.63.43c.74.85,1.65,1.92,2.58,2.94l.65-.42c-.93-1-1.84-2.13-2.6-2.95"/><path class="cls-2" d="M100.41,9.89V16a1.18,1.18,0,0,0,1,1.11l.74-.74.23.26L99.7,19.33h-.17a3,3,0,0,1-2.41-2.7V9.72L96.39,9l-.77.76-.25-.25,3-3h.23l1.9,1.84v1l2.41-2.86h.22a18,18,0,0,0,1.9,1.7v.06l-2,2.41h-.06c-.56-.48-1.3-1.16-1.73-1.59Zm-.31,8.59a2.24,2.24,0,0,1-1.9-2.19V9.18l-1-1-.57.57.85.88v7a2.61,2.61,0,0,0,2.07,2.44Zm1.27-9.67c.43.4,1,.94,1.48,1.36l.48-.56c-.45-.43-1.16-1-1.5-1.36Z"/><path class="cls-2" d="M108,19.38l-2.89-1.92V13.72c.74-.51,2.24-1.56,3-2.07a8.68,8.68,0,0,1-2.69-2.1V9.3a22.91,22.91,0,0,0,4-2.81h.23l3.71,1.76a1.24,1.24,0,0,0,.54.14,1.61,1.61,0,0,0,.71-.2v.4A1.36,1.36,0,0,0,114,9.66V16a1.33,1.33,0,0,0,1,1.19l.74-.73.23.25-2.67,2.72h-.17a3.41,3.41,0,0,1-2.41-2.46l-2.55,2.46Zm.63-.93-2.41-1.59V13.35l-.74.54v3.42L108.09,19Zm2-6.12v-2l-3.4-1.78a12.57,12.57,0,0,1-1.45.9,9.84,9.84,0,0,0,4.85,2.84m3,6.17a2.46,2.46,0,0,1-1.87-2.26V9.69l-3.6-1.78c-.08.08-.51.37-.62.45l3.45,1.79v6.37A3,3,0,0,0,113.13,19Zm-3-2V12.7a12.71,12.71,0,0,1-2.24-.88v4.7l1.33.82Z"/><path class="cls-2" d="M84.88,17.4V9.47l4.23-2.92h.25l3.85,1.64a1.14,1.14,0,0,0,.43.09,1.61,1.61,0,0,0,.79-.23v.42a1.79,1.79,0,0,0-.59,1.08v6.74a4.23,4.23,0,0,0,1,3.15v.25c-.93.94-3.09,3.15-4,4.31h-.17a8.53,8.53,0,0,0-3.71-.91,4.52,4.52,0,0,0-2.78.88l-.2-.17c.74-1.7,2.27-3.4,4.25-3.4a9.73,9.73,0,0,1,4.22,1.25A8.35,8.35,0,0,1,90.58,17l-2.49,2.41h-.2Zm2,4.65a2.8,2.8,0,0,0-2.23,1v.12a4.35,4.35,0,0,1,2.23-.51,8.56,8.56,0,0,1,3.72.85l.48-.57a9.82,9.82,0,0,0-4.2-.93m1-3.06.6-.54L86,16.83V9.15l-.74.51V17.2Zm3.74-9.78L88.17,7.74V8.5l2.75,1.19v7.17a7.4,7.4,0,0,0,1.73,4.51l.56-.57a6.69,6.69,0,0,1-1.53-4.08Zm-1.1,7.25V9.92L88.17,8.87v7.42l1.5,1Z"/><path class="cls-2" d="M121,9.47l3.09-3h.23c.22.23,1.64,1.5,1.87,1.64a.55.55,0,0,0,.42.09,1.37,1.37,0,0,0,.65-.2V8.5a1.61,1.61,0,0,0-.56,1.16v7.6a6.45,6.45,0,0,0-3.54,2.38H123L121,19.21v1.67l1.08,1-2.52,2.09h-.14l-2.38-2,.62-.68v-2.8c-.31-.06-.65-.12-1-.2v-.34a2.13,2.13,0,0,0,1-1.45V9.75L116.93,9l-.77.77-.25-.26,3-3h.23L121,8.33V9.47Zm-2.92,12-.51.48,1.93,1.65.6-.51-1.51-1.25.26-.26V9.27l-1.08-1.08-.54.54.85.88Zm5.33-4.67V10l-1.13-1.17L121,10v6.32c.54.12,2.07.4,2.38.46M123,19.24a3.41,3.41,0,0,1,.54-.59L121,18.11v.71Zm-.54-10.65,1.28,1.24v6.92l.74-.43V9.44L123,8Z"/><path class="cls-2" d="M1,12.38c0-3,2.3-5.12,4.42-6.09l.14.2a4.87,4.87,0,0,0-1.33,3.6,6.63,6.63,0,0,0,1.42,4.53,2.14,2.14,0,0,0,.45-1.27V10.2L10,7.45l.17.23a2.61,2.61,0,0,0-.54,1.67v2c0,1.42-2.29,2.92-3.74,3.49a5.14,5.14,0,0,0,3.72,1.3A13.33,13.33,0,0,0,11,16.07V7.28a18.8,18.8,0,0,1-3.54-.7,12.85,12.85,0,0,0-3.37-.66C2.55,5.92.68,6.46.65,8.7a4.62,4.62,0,0,0,.06.65l-.28.09A6.32,6.32,0,0,1,0,7.37,5,5,0,0,1,5.21,2.24,14.61,14.61,0,0,1,9,2.89a13.61,13.61,0,0,0,3.6.65.85.85,0,0,0,1-.9.88.88,0,0,0-.73-1l0-.29c1.39.26,2.89,1.08,2.89,2.81,0,2.09-1.53,3.09-4.08,3.09h-.25V16a5.05,5.05,0,0,0,3.65-2.43l.26.14c-.94,3-3.15,5.81-7.08,5.81S1,17.2,1,12.38M11.64,6.21c-2.86,0-5.41-1.42-7.5-1.42A3.42,3.42,0,0,0,.71,6.89l.08,0C1.42,5.84,2.86,5.5,4.14,5.5c2.09,0,4.64,1.42,7.5,1.42,2.3,0,3.63-.77,3.86-2.61l-.12,0C15,5.73,13.94,6.21,11.64,6.21M3.46,8a6.28,6.28,0,0,0-2.07,4.42c0,4.48,3,6.75,6.83,6.75a6.89,6.89,0,0,0,5-2.27l0-.08a7.46,7.46,0,0,1-4.93,1.61,5.69,5.69,0,0,1-6-6A7.61,7.61,0,0,1,3.54,8.05Zm3.79,5.19,0-3.29-.74.51v3.09a2.34,2.34,0,0,1-.17.85H6.4a1.6,1.6,0,0,0,.85-1.16"/><path class="cls-2" d="M43.21,12.38c0-3,2.29-5.12,4.42-6.09l.14.2a4.84,4.84,0,0,0-1.33,3.6,6.63,6.63,0,0,0,1.41,4.53,2.08,2.08,0,0,0,.46-1.27V10.2l3.85-2.75.17.23a2.56,2.56,0,0,0-.54,1.67v2c0,1.42-2.29,2.92-3.74,3.49a5.13,5.13,0,0,0,3.71,1.3,13.37,13.37,0,0,0,1.42-.08V7.28a18.8,18.8,0,0,1-3.54-.7,12.85,12.85,0,0,0-3.37-.66c-1.56,0-3.43.54-3.46,2.78a4.62,4.62,0,0,0,.06.65l-.29.09a6.58,6.58,0,0,1-.42-2.07,5,5,0,0,1,5.21-5.13,14.61,14.61,0,0,1,3.77.65,13.61,13.61,0,0,0,3.6.65.85.85,0,0,0,1-.9.88.88,0,0,0-.73-1L55,1.36c1.39.26,2.89,1.08,2.89,2.81,0,2.09-1.53,3.09-4.08,3.09h-.25V16a5.05,5.05,0,0,0,3.65-2.43l.26.14c-.94,3-3.15,5.81-7.09,5.81s-7.19-2.3-7.19-7.12M53.83,6.21c-2.86,0-5.41-1.42-7.51-1.42a3.4,3.4,0,0,0-3.42,2.1l.08,0c.62-1.08,2.07-1.42,3.34-1.42,2.1,0,4.65,1.42,7.51,1.42,2.3,0,3.63-.77,3.86-2.61l-.12,0c-.34,1.45-1.41,1.93-3.74,1.93M45.67,8a6.32,6.32,0,0,0-2.07,4.42c0,4.48,3,6.75,6.83,6.75a6.92,6.92,0,0,0,5-2.27l-.06-.08a7.42,7.42,0,0,1-4.93,1.61,5.69,5.69,0,0,1-6-6,7.61,7.61,0,0,1,1.36-4.33Zm3.8,5.19,0-3.29-.74.51v3.09a2.15,2.15,0,0,1-.17.85h.09a1.63,1.63,0,0,0,.85-1.16"/></g></g></svg>